<svg viewBox="0 0 99 98" fill="none" xmlns="http://www.w3.org/2000/svg">
<path d="M38.7455 0H6.10553C4.66275 0 3.27906 0.573609 2.25887 1.59464C1.23867 2.61567 0.665527 4.00049 0.665527 5.44444V38.1111C0.665527 39.5551 1.23867 40.9399 2.25887 41.9609C3.27906 42.9819 4.66275 43.5556 6.10553 43.5556H38.7455C40.1883 43.5556 41.572 42.9819 42.5922 41.9609C43.6124 40.9399 44.1855 39.5551 44.1855 38.1111V5.44444C44.1855 4.00049 43.6124 2.61567 42.5922 1.59464C41.572 0.573609 40.1883 0 38.7455 0ZM93.1455 54.4444H60.5055C59.0628 54.4444 57.6791 55.0181 56.6589 56.0391C55.6387 57.0601 55.0655 58.4449 55.0655 59.8889V92.5556C55.0655 93.9995 55.6387 95.3843 56.6589 96.4054C57.6791 97.4264 59.0628 98 60.5055 98H93.1455C94.5883 98 95.972 97.4264 96.9922 96.4054C98.0124 95.3843 98.5855 93.9995 98.5855 92.5556V59.8889C98.5855 58.4449 98.0124 57.0601 96.9922 56.0391C95.972 55.0181 94.5883 54.4444 93.1455 54.4444ZM76.8255 0C64.8249 0 55.0655 9.76733 55.0655 21.7778C55.0655 33.7882 64.8249 43.5556 76.8255 43.5556C88.8262 43.5556 98.5855 33.7882 98.5855 21.7778C98.5855 9.76733 88.8262 0 76.8255 0ZM22.4255 54.4444C10.4249 54.4444 0.665527 64.2118 0.665527 76.2222C0.665527 88.2327 10.4249 98 22.4255 98C34.4262 98 44.1855 88.2327 44.1855 76.2222C44.1855 64.2118 34.4262 54.4444 22.4255 54.4444Z" fill="currentcolor"/>
</svg>
