<svg viewBox="0 0 93 100" fill="none" xmlns="http://www.w3.org/2000/svg">
<path d="M84.5455 72.7273V31.8182H25.3636V72.7273H84.5455ZM84.5455 9.09091C86.7877 9.09091 88.9382 10.0487 90.5237 11.7536C92.1093 13.4585 93 15.7708 93 18.1818V72.7273C93 75.1383 92.1093 77.4506 90.5237 79.1555C88.9382 80.8604 86.7877 81.8182 84.5455 81.8182H25.3636C23.1214 81.8182 20.9709 80.8604 19.3854 79.1555C17.7998 77.4506 16.9091 75.1383 16.9091 72.7273V18.1818C16.9091 15.7708 17.7998 13.4585 19.3854 11.7536C20.9709 10.0487 23.1214 9.09091 25.3636 9.09091H29.5909V0H38.0455V9.09091H71.8636V0H80.3182V9.09091H84.5455ZM8.45455 90.9091H67.6364V100H8.45455C6.21226 100 4.06181 99.0422 2.47628 97.3373C0.890744 95.6325 0 93.3202 0 90.9091V36.3636H8.45455V90.9091ZM76.0909 63.6364H59.1818V45.4545H76.0909V63.6364Z" fill="#D3E8E0" fill-opacity="0.9"/>
</svg>
