<svg viewBox="0 0 75 75" fill="none" xmlns="http://www.w3.org/2000/svg">
<path d="M26.4703 0H44.1172V18.75H26.4703V0ZM0 56.25H17.6469V75H0V56.25ZM0 28.125H17.6469V46.875H0V28.125ZM0 0H17.6469V18.75H0V0ZM44.1172 39.4688V28.125H26.4703V46.875H37.1467L44.1172 39.4688ZM74.4698 34.1719L69.3081 28.6875C69.1401 28.5089 68.9407 28.3672 68.7212 28.2706C68.5016 28.1739 68.2664 28.1242 68.0287 28.1242C67.7911 28.1242 67.5558 28.1739 67.3363 28.2706C67.1168 28.3672 66.9173 28.5089 66.7493 28.6875L62.867 32.8125L70.5875 41.0156L74.4698 36.8906C74.6379 36.7121 74.7712 36.5002 74.8622 36.267C74.9532 36.0337 75 35.7837 75 35.5312C75 35.2788 74.9532 35.0288 74.8622 34.7955C74.7712 34.5623 74.6379 34.3504 74.4698 34.1719ZM30.882 66.7969V75H38.6026L68.0287 43.7344L60.3082 35.5312L30.882 66.7969ZM52.9406 0H70.5875V18.75H52.9406V0Z" fill="currentcolor"/>
</svg>
